<svg id="kyma" xmlns="http://www.w3.org/2000/svg" viewBox="0 0 56 56"><defs><style>.cls-1{fill:#053b70;}.cls-2{fill:#0a6ed1;}</style></defs><path class="cls-1" d="M51.589,26.478,41.113,8.492a3.024,3.024,0,0,0-2.614-1.5H28.012v3H38.5l.02.011L49,28.012l-10.5,18L28.012,46v3.007H38.5a3.024,3.024,0,0,0,2.614-1.5L51.589,29.522A3.024,3.024,0,0,0,51.589,26.478Z"/><path class="cls-2" d="M15.98,31.663a4.33,4.33,0,0,1,1.962-.467H19.88a11.255,11.255,0,0,0,7.168-2.35c-.523-.465-1.032-.939-1.522-1.409-2.475-2.353-5.054-4.575-9.546-4.771Z"/><path class="cls-2" d="M19.86,32.651H17.942a1.971,1.971,0,0,0-1.937,1.938v2.463H39.992L39.981,22.74c-4.428.219-6.742,2.422-9.194,4.747C28.111,30.025,25.343,32.651,19.86,32.651Z"/><path class="cls-2" d="M19.326,17.93v3.875a12.97,12.97,0,0,1,4.736,2.532,12.206,12.206,0,0,0,3.448-2.493C25.465,19.887,23.414,17.93,19.326,17.93Z"/><path class="cls-2" d="M26.417,26.493c.531.512,1.085,1.03,1.66,1.522.584-.5,1.149-1.035,1.719-1.577a18.149,18.149,0,0,1,6.216-4.356L36,18.605c-3.39.2-5.2,1.913-7.091,3.734A16.729,16.729,0,0,1,25.135,25.3C25.57,25.691,26,26.092,26.417,26.493Z"/><path class="cls-2" d="M7.005,27.988l10.5-18H28.012v-3H17.5a3.024,3.024,0,0,0-2.614,1.5L4.411,26.478a3.024,3.024,0,0,0,0,3.044L14.887,47.508a3.024,3.024,0,0,0,2.614,1.5H28.012V46L17.481,46Z"/></svg>